<svg width="46" height="46" viewBox="0 0 46 46" fill="none" xmlns="http://www.w3.org/2000/svg">
<path d="M31.9054 14.8493V27.5772C31.9054 27.9757 31.7471 28.3579 31.4653 28.6397C31.1836 28.9215 30.8014 29.0798 30.4028 29.0798C30.0043 29.0798 29.6221 28.9215 29.3403 28.6397C29.0586 28.3579 28.9002 27.9757 28.9002 27.5772L28.902 18.4732L15.9089 31.4663C15.6276 31.7476 15.2461 31.9057 14.8483 31.9057C14.4504 31.9057 14.0689 31.7476 13.7876 31.4663C13.5063 31.185 13.3483 30.8035 13.3483 30.4057C13.3483 30.0078 13.5063 29.6263 13.7876 29.345L26.7807 16.3519L17.6758 16.3493C17.2773 16.3493 16.8951 16.1909 16.6133 15.9092C16.3315 15.6274 16.1732 15.2452 16.1732 14.8467C16.1732 14.4481 16.3315 14.0659 16.6133 13.7842C16.8951 13.5024 17.2773 13.3441 17.6758 13.3441H30.4037C30.6013 13.3438 30.797 13.3826 30.9795 13.4582C31.162 13.5338 31.3278 13.6448 31.4674 13.7846C31.6069 13.9245 31.7174 14.0906 31.7926 14.2733C31.8678 14.456 31.9061 14.6517 31.9054 14.8493Z" fill="white"/>
</svg>
