<svg width="208" height="207" viewBox="0 0 208 207" fill="none" xmlns="http://www.w3.org/2000/svg">
<path d="M109.347 0.388731C113.282 2.35622 116.172 4.52252 118.347 8.38873C118.347 9.70873 118.347 11.0287 118.347 12.3887C119.007 12.3887 119.667 12.3887 120.347 12.3887C120.574 11.7906 120.8 11.1925 121.034 10.5762C123.023 7.26095 125.974 6.07502 129.347 4.38873C135.298 4.32922 139.796 5.36707 144.347 9.38873C147.204 13.1361 148.93 16.5785 148.347 21.3887C149.172 20.8937 149.997 20.3987 150.847 19.8887C154.868 18.1653 158.085 17.4255 162.347 18.3887C167.092 20.7349 171.504 23.2139 173.347 28.3887C173.577 30.8965 173.577 30.8965 173.534 33.5137C173.524 34.817 173.524 34.817 173.515 36.1465C173.347 38.3887 173.347 38.3887 172.347 40.3887C173.083 40.3539 173.819 40.3191 174.577 40.2833C184.635 40.0043 184.635 40.0043 188.347 43.3887C191.784 46.9216 193.669 49.9458 193.847 54.9512C193.626 58.9751 192.473 61.9333 190.347 65.3887C191.011 65.6569 191.674 65.925 192.358 66.2012C197.937 68.6769 201.67 70.8652 204.573 76.3419C206.26 80.8068 205.822 84.1375 204.159 88.5137C202.21 91.6057 200.032 93.9213 197.347 96.3887C198.254 96.925 199.162 97.4612 200.097 98.0137C203.505 100.324 205.481 102.657 207.347 106.389C207.997 112.245 207.272 116.144 204.347 121.389C201.29 124.365 198.368 126.01 194.347 127.389C195.553 128.812 195.553 128.812 196.784 130.264C199.791 133.811 200.813 136.276 200.761 141.088C199.966 145.502 197.412 149.184 194.347 152.389C191.153 154.027 188.605 154.635 185.034 154.514C183.817 154.472 182.6 154.431 181.347 154.389C181.83 155.212 181.83 155.212 182.323 156.053C184.2 160.336 183.865 164.809 183.347 169.389C181.227 174.247 178.297 176.629 173.577 178.772C169.165 179.992 164.433 179.432 160.347 177.389C160.393 177.969 160.439 178.549 160.487 179.147C160.749 184.816 160.187 187.926 156.347 192.389C155.687 193.172 155.027 193.956 154.347 194.764C149.547 197.364 144.68 197.155 139.347 196.389C136.097 194.389 136.097 194.389 134.347 192.389C134.079 192.98 133.81 193.572 133.534 194.182C130.6 200.098 127.642 203.984 121.347 206.389C117.481 207.123 114.327 206.799 110.659 205.264C107.749 202.904 105.647 200.346 103.347 197.389C102.81 198.152 102.274 198.915 101.722 199.701C98.4259 203.431 95.7214 205.03 90.7607 205.779C85.8951 206.073 82.2801 205.954 78.3466 202.889C74.9625 199.497 73.68 195.938 72.3466 191.389C71.5629 192.028 70.7791 192.667 69.9716 193.326C66.3414 196.179 64.1738 196.742 59.5068 196.666C54.475 196.02 51.2802 193.394 47.9091 189.764C45.8047 185.218 45.9962 181.315 46.3466 176.389C45.7279 176.739 45.1091 177.09 44.4716 177.451C39.9387 178.811 35.9369 178.425 31.3466 177.389C27.0167 174.901 24.997 172.079 23.3466 167.389C22.8234 162.221 22.6979 157.969 25.3466 153.389C24.336 153.471 23.3254 153.554 22.2841 153.639C16.784 153.29 13.3135 151.487 9.47164 147.389C7.02821 143.045 6.64769 138.31 7.34664 133.389C10.3319 127.727 10.3319 127.727 14.3466 126.389C14.3466 125.729 14.3466 125.069 14.3466 124.389C13.666 124.512 12.9854 124.636 12.2841 124.764C7.81727 124.193 5.34199 121.623 2.34664 118.389C-0.0727155 114.392 -0.382009 109.968 0.346643 105.389C2.91954 100.434 6.32898 96.8976 11.3466 94.3887C10.3979 93.6462 9.44914 92.9037 8.47164 92.1387C5.18807 89.569 3.60312 87.196 3.01071 83.0215C2.92159 77.3002 3.28186 73.7662 7.34664 69.3887C11.1036 66.5398 14.53 64.8049 19.3466 65.3887C18.6866 64.4194 18.0266 63.45 17.3466 62.4512C14.8954 58.1266 14.4655 54.2663 15.3466 49.3887C17.5708 45.0227 20.1584 41.9381 24.3466 39.3887C27.6508 38.4954 30.9622 37.8882 34.3466 37.3887C34.3853 36.5186 34.3853 36.5186 34.4248 35.6309C34.9233 28.7643 36.6827 24.7355 41.9716 20.0762C46.3642 16.9552 50.0436 16.7048 55.3466 17.3887C57.7085 18.4858 59.3119 19.7192 61.3466 21.3887C61.192 20.1512 61.192 20.1512 61.0341 18.8887C61.5408 13.2144 64.3823 9.13483 68.5966 5.38873C73.8814 3.46699 78.59 3.68608 83.7841 5.76373C86.3466 7.38873 86.3466 7.38873 88.3466 9.38873C89.0685 8.46061 89.7904 7.53248 90.5341 6.57623C95.9394 0.242632 101.188 -0.70151 109.347 0.388731Z" fill="#DD7751"/>
<path d="M42.588 100V63.5833H59.3483V68.636H50.0439V78.3718H57.9311V83.9791H50.0439V95.0705H59.3483V100H42.588ZM63.1677 100V63.5833H69.3912L76.9703 85.6428V63.5833H83.2554V100H77.0319L69.4528 79.4193V100H63.1677ZM98.2399 100.739C96.227 100.739 94.44 100.493 92.879 100C91.3591 99.5481 90.1473 98.5828 89.2435 97.1039C88.3809 95.584 87.9495 93.3452 87.9495 90.3875V71.2856C87.9495 69.1084 88.3809 67.4242 89.2435 66.2329C90.1473 65.0416 91.3796 64.22 92.9407 63.7681C94.5017 63.2752 96.2886 63.0287 98.3015 63.0287C100.355 63.0287 102.122 63.2752 103.601 63.7681C105.121 64.2611 106.291 65.1032 107.113 66.2945C107.935 67.4858 108.345 69.1495 108.345 71.2856V78.8031H101.198V70.9775C101.198 69.9916 101.074 69.2522 100.828 68.7593C100.581 68.2252 100.232 67.8761 99.7803 67.7117C99.3695 67.5474 98.8766 67.4653 98.3015 67.4653C97.7264 67.4653 97.2129 67.5474 96.761 67.7117C96.3091 67.8761 95.96 68.2252 95.7135 68.7593C95.467 69.2522 95.3438 69.9916 95.3438 70.9775V93.0371C95.3438 93.9819 95.467 94.7213 95.7135 95.2554C95.96 95.7483 96.3091 96.0975 96.761 96.3029C97.2129 96.4672 97.7264 96.5493 98.3015 96.5493C98.8766 96.5493 99.3695 96.4672 99.7803 96.3029C100.232 96.0975 100.581 95.7483 100.828 95.2554C101.074 94.7213 101.198 93.9819 101.198 93.0371V85.8277H108.345V90.3258C108.345 93.3246 107.935 95.584 107.113 97.1039C106.291 98.5828 105.121 99.5481 103.601 100C102.122 100.493 100.335 100.739 98.2399 100.739ZM122.546 100.739C120.533 100.739 118.767 100.493 117.247 100C115.727 99.5481 114.536 98.5828 113.673 97.1039C112.851 95.584 112.441 93.3452 112.441 90.3875V71.2856C112.441 69.1084 112.851 67.4242 113.673 66.2329C114.536 65.0416 115.727 64.22 117.247 63.7681C118.808 63.2752 120.595 63.0287 122.608 63.0287C124.579 63.0287 126.325 63.2752 127.845 63.7681C129.406 64.2611 130.618 65.1032 131.481 66.2945C132.385 67.4858 132.836 69.1495 132.836 71.2856V90.3258C132.836 93.3246 132.385 95.584 131.481 97.1039C130.618 98.5828 129.406 99.5481 127.845 100C126.325 100.493 124.559 100.739 122.546 100.739ZM122.546 96.5493C123.162 96.5493 123.696 96.4466 124.148 96.2413C124.641 96.0359 125.011 95.6867 125.257 95.1937C125.545 94.6597 125.689 93.9408 125.689 93.0371V70.9775C125.689 70.0738 125.545 69.3755 125.257 68.8825C125.011 68.3485 124.641 67.9788 124.148 67.7734C123.696 67.568 123.162 67.4653 122.546 67.4653C121.93 67.4653 121.396 67.568 120.944 67.7734C120.492 67.9788 120.122 68.3485 119.835 68.8825C119.588 69.3755 119.465 70.0738 119.465 70.9775V93.0371C119.465 93.9408 119.588 94.6597 119.835 95.1937C120.122 95.6867 120.492 96.0359 120.944 96.2413C121.396 96.4466 121.93 96.5493 122.546 96.5493ZM137.604 100V63.5833H146.538L151.53 87.1217L156.582 63.5833H165.455V100H159.17V72.7645L153.933 100H149.065L143.889 72.7645V100H137.604Z" fill="white"/>
</svg>
