<svg width="44" height="44" viewBox="0 0 44 44" fill="none" xmlns="http://www.w3.org/2000/svg">
<path d="M43.9999 21.9933C44.0049 22.638 43.8089 23.2683 43.4392 23.7965C43.0694 24.3247 42.5443 24.7246 41.9368 24.9406L29.4716 29.4736L24.9406 41.9368C24.7173 42.5384 24.3152 43.0573 23.7883 43.4238C23.2614 43.7902 22.6351 43.9866 21.9933 43.9866C21.3515 43.9866 20.7251 43.7902 20.1983 43.4238C19.6714 43.0573 19.2693 42.5384 19.046 41.9368L14.515 29.4716L2.0498 24.9406C1.44815 24.7173 0.92926 24.3152 0.562833 23.7883C0.196406 23.2614 0 22.6351 0 21.9933C0 21.3515 0.196406 20.7251 0.562833 20.1983C0.92926 19.6714 1.44815 19.2693 2.0498 19.046L14.515 14.515L19.046 2.0498C19.2693 1.44815 19.6714 0.92926 20.1983 0.562833C20.7251 0.196406 21.3515 0 21.9933 0C22.6351 0 23.2614 0.196406 23.7883 0.562833C24.3152 0.92926 24.7173 1.44815 24.9406 2.0498L29.4736 14.515L41.9368 19.046C42.5443 19.262 43.0694 19.6619 43.4392 20.1901C43.8089 20.7183 44.0049 21.3486 43.9999 21.9933Z" fill="#E5AD58"/>
</svg>
